<svg width="56" height="51" viewBox="0 0 56 51" fill="none" xmlns="http://www.w3.org/2000/svg">
<path d="M46.2095 1.91055C46.3856 1.55065 46.6766 1.55065 46.8565 1.91055L48.5718 5.38708C48.6815 5.5825 48.832 5.75203 49.013 5.88416C49.194 6.01628 49.4014 6.10792 49.6209 6.15283L53.4497 6.71183C53.8517 6.76927 53.9398 7.04494 53.6526 7.32827L50.8768 10.0314C50.7266 10.1969 50.6132 10.3923 50.5439 10.6048C50.4746 10.8173 50.451 11.042 50.4747 11.2642L51.1295 15.093C51.1984 15.4759 50.9648 15.6597 50.6049 15.4759L47.182 13.6572C46.9782 13.5644 46.7569 13.5164 46.533 13.5164C46.3091 13.5164 46.0878 13.5644 45.884 13.6572L42.4381 15.4606C42.0821 15.6482 41.8447 15.4606 41.9136 15.0777L42.5683 11.2489C42.5955 11.028 42.5755 10.8039 42.5095 10.5913C42.4435 10.3788 42.333 10.1827 42.1854 10.0161L39.4096 7.32444C39.1186 7.04111 39.2105 6.76544 39.6087 6.70801L43.4375 6.149C43.6567 6.10338 43.8638 6.01147 44.0447 5.87941C44.2256 5.74736 44.3762 5.5782 44.4865 5.38325L46.2095 1.91055Z" stroke="#4F9537" stroke-width="2.5" stroke-miterlimit="10" stroke-linecap="round"/>
<path d="M25.6253 49.4147L17.4085 47.6119C17.6631 46.807 17.8004 45.95 17.8004 45.0622V22.6521C17.8004 22.2625 17.774 21.8781 17.7227 21.501H19.5299C22.1308 21.501 24.3428 19.5974 24.7244 17.0201L25.6773 10.6101C25.6774 10.6099 25.6774 10.6096 25.6774 10.6094C25.8426 9.51025 26.7873 8.69531 27.8989 8.69531C31.0129 8.69531 33.3506 11.5424 32.7443 14.5958L32.7442 14.5962L32.3285 16.6937C32.3285 16.6938 32.3285 16.6939 32.3284 16.6941C31.8344 19.1835 33.7391 21.5011 36.2745 21.5011H47.1578C49.0191 21.5011 50.5161 22.9896 50.5161 24.8093C50.5161 26.2808 49.5431 27.5317 48.1856 27.9598L46.2423 28.5726L47.6692 30.0273C48.2545 30.624 48.6121 31.4332 48.6121 32.3252C48.6121 33.4556 48.0415 34.45 47.1592 35.0489L45.6383 36.0812L47.1574 37.1161C48.0422 37.7189 48.6121 38.7146 48.6121 39.841C48.6121 41.1164 47.8815 42.2257 46.7979 42.78L45.2272 43.5837L46.5062 44.799C47.0254 45.2923 47.3428 45.9739 47.3428 46.7317C47.3428 48.2069 46.1277 49.4147 44.6191 49.4147H25.6253Z" stroke="#A22136" stroke-width="2.5"/>
<path d="M1.79297 21.0487C1.79297 19.5287 3.02477 18.2969 4.54476 18.2969H9.34692C11.7517 18.2969 13.6994 20.2446 13.6994 22.6494V45.0594C13.6994 47.4642 11.7517 49.412 9.34692 49.412H4.54476C3.02477 49.412 1.79297 48.1802 1.79297 46.6602V21.0487Z" stroke="#A22136" stroke-width="2.5"/>
<circle cx="7.74575" cy="43.1637" r="1.97622" stroke="#A22136" stroke-width="2.5"/>
</svg>
