<svg width="47" height="51" viewBox="0 0 47 51" fill="none" xmlns="http://www.w3.org/2000/svg">
<path d="M36.8891 5.63281H40.3509C41.0288 5.63281 41.7 5.76633 42.3263 6.02574C42.9526 6.28515 43.5216 6.66538 44.001 7.14471C44.4803 7.62404 44.8605 8.19309 45.1199 8.81936C45.3793 9.44564 45.5128 10.1169 45.5128 10.7948V44.0452C45.5128 44.7231 45.3793 45.3944 45.1199 46.0206C44.8605 46.6469 44.4803 47.216 44.001 47.6953C43.5216 48.1746 42.9526 48.5548 42.3263 48.8143C41.7 49.0737 41.0288 49.2072 40.3509 49.2072H7.10042C6.42254 49.2072 5.7513 49.0737 5.12503 48.8143C4.49875 48.5548 3.92971 48.1746 3.45037 47.6953C2.97104 47.216 2.59082 46.6469 2.33141 46.0206C2.07199 45.3944 1.93848 44.7231 1.93848 44.0452V10.7948C1.93848 9.42572 2.48232 8.11276 3.45037 7.14471C4.41843 6.17666 5.73139 5.63281 7.10042 5.63281H9.66091" stroke="#A22136" stroke-width="2.5" stroke-miterlimit="10" stroke-linecap="round"/>
<path d="M14.1934 5.63281H23.7286H32.3523" stroke="#A22136" stroke-width="2.5" stroke-miterlimit="10" stroke-linecap="round"/>
<path d="M11.9248 8.35513V2" stroke="#A22136" stroke-width="2.5" stroke-miterlimit="10" stroke-linecap="round"/>
<path d="M34.6201 8.35513V2" stroke="#A22136" stroke-width="2.5" stroke-miterlimit="10" stroke-linecap="round"/>
<path d="M1.93848 13.8516H45.5128" stroke="#A22136" stroke-width="2.5" stroke-miterlimit="10" stroke-linecap="round"/>
<path d="M15.5752 28.7278L22.2325 35.3851L33.2426 24.375" stroke="#4F9537" stroke-width="2.5" stroke-miterlimit="10" stroke-linecap="round"/>
</svg>
