<svg width="80" height="41" viewBox="0 0 80 41" fill="none" xmlns="http://www.w3.org/2000/svg">
<path d="M50.9171 14.1799C50.9171 21.1732 45.5992 26.7113 39.1963 26.7113C32.7935 26.7113 27.4756 21.1732 27.4756 14.1799C27.4756 7.18647 32.7935 1.64844 39.1963 1.64844C45.5992 1.64844 50.9171 7.18647 50.9171 14.1799Z" stroke="#4F9537" stroke-width="2.5"/>
<path d="M31.3614 23.9791C27.2834 27.1898 24.6045 32.6082 24.6045 38.7515C24.6045 38.9381 24.607 39.124 24.6119 39.3093H55.4026C55.4075 39.124 55.41 38.9381 55.41 38.7515C55.41 32.3126 52.4672 26.6701 48.0549 23.5312" stroke="#4F9537" stroke-width="2.5"/>
<path d="M23.2195 15.1251C23.2195 20.85 18.8695 25.3597 13.6605 25.3597C8.45156 25.3597 4.10156 20.85 4.10156 15.1251C4.10156 9.4003 8.45156 4.89062 13.6605 4.89062C18.8695 4.89062 23.2195 9.4003 23.2195 15.1251Z" stroke="#A22136" stroke-width="2.5"/>
<path d="M7.1308 23.2951C3.7324 25.9706 1.5 30.486 1.5 35.6054C1.5 35.7609 1.50206 35.9159 1.50615 36.0702H20.1117M21.042 22.9219C21.868 23.5094 22.6321 24.2023 23.3206 24.9843" stroke="#A22136" stroke-width="2.5"/>
<path d="M56.6594 15.1251C56.6594 20.85 61.0094 25.3597 66.2184 25.3597C71.4273 25.3597 75.7773 20.85 75.7773 15.1251C75.7773 9.4003 71.4273 4.89062 66.2184 4.89062C61.0094 4.89062 56.6594 9.4003 56.6594 15.1251Z" stroke="#A22136" stroke-width="2.5"/>
<path d="M72.7481 23.2951C76.1465 25.9706 78.3789 30.486 78.3789 35.6054C78.3789 35.7609 78.3768 35.9159 78.3728 36.0702H59.7672M58.8369 22.9219C58.0109 23.5094 57.2468 24.2023 56.5583 24.9843" stroke="#A22136" stroke-width="2.5"/>
</svg>
