<svg width="56" height="51" viewBox="0 0 56 51" fill="none" xmlns="http://www.w3.org/2000/svg">
<path d="M13.1759 5.14525C13.2347 4.96905 13.2004 2.84479 13.1759 1.80469H18.5723C18.5723 6.54021 19.6442 11.5254 12.4785 10.615" stroke="#A22136" stroke-width="2.5"/>
<path d="M21.9133 5.14525C21.972 4.96905 21.9377 2.84479 21.9133 1.80469H27.3096C27.3096 6.54021 28.3815 11.5254 21.2158 10.615" stroke="#A22136" stroke-width="2.5"/>
<path d="M10.0193 6.27344H7.73985C4.34977 6.27344 1.60156 9.02164 1.60156 12.4117L1.60156 31.3653C1.60156 34.7553 4.34977 37.5036 7.73985 37.5036H10.6558C11.0325 37.5036 11.3379 37.8089 11.3379 38.1856V44.2466C11.3379 44.8439 12.0512 45.1527 12.4867 44.7439L20.0022 37.6883C20.1287 37.5696 20.2956 37.5036 20.469 37.5036H25.7294M31.0905 6.27344H44.6251C48.0152 6.27344 50.7634 9.02165 50.7634 12.4117V27.515" stroke="#A22136" stroke-width="2.5" stroke-miterlimit="10"/>
<path d="M38.9454 21.4981C39.3009 20.7715 39.8883 20.7715 40.2516 21.4981L43.7144 28.5164C43.9359 28.9109 44.2396 29.2531 44.6051 29.5199C44.9705 29.7866 45.389 29.9716 45.8323 30.0623L53.5617 31.1908C54.3733 31.3067 54.5511 31.8632 53.9714 32.4352L48.3675 37.8922C48.0644 38.2264 47.8355 38.6209 47.6956 39.0498C47.5557 39.4788 47.5081 39.9324 47.5559 40.3811L48.8777 48.1105C49.0168 48.8834 48.5453 49.2545 47.8187 48.8834L40.9086 45.212C40.4973 45.0246 40.0505 44.9277 39.5985 44.9277C39.1465 44.9277 38.6997 45.0246 38.2883 45.212L31.3319 48.8525C30.613 49.2313 30.1338 48.8525 30.2729 48.0796L31.5947 40.3501C31.6496 39.9042 31.6091 39.4517 31.4759 39.0226C31.3426 38.5935 31.1196 38.1976 30.8217 37.8613L25.2179 32.4275C24.6304 31.8555 24.8159 31.299 25.6198 31.183L33.3492 30.0545C33.7919 29.9624 34.2099 29.7769 34.5751 29.5103C34.9403 29.2437 35.2444 28.9022 35.4671 28.5086L38.9454 21.4981Z" stroke="#4F9537" stroke-width="2.5" stroke-miterlimit="10" stroke-linecap="round"/>
</svg>
