<svg width="59" height="47" viewBox="0 0 59 47" fill="none" xmlns="http://www.w3.org/2000/svg">
<path d="M29.3515 45.6093C39.6767 45.6093 48.0468 37.2392 48.0468 26.914C48.0468 16.5889 39.6767 8.21875 29.3515 8.21875C19.0264 8.21875 10.6562 16.5889 10.6562 26.914C10.6562 37.2392 19.0264 45.6093 29.3515 45.6093Z" stroke="#A22136" stroke-width="2.5" stroke-miterlimit="10"/>
<path d="M6.26465 19.8717C7.63428 14.7874 10.6326 10.2922 14.8005 7.07444C18.9683 3.85665 24.076 2.09362 29.3413 2.05532C34.6067 2.01703 39.7394 3.70559 43.9537 6.86242C48.1679 10.0193 51.2313 14.4704 52.6747 19.5341" stroke="#A22136" stroke-width="2.5" stroke-miterlimit="10"/>
<path d="M5.46895 19.9453H10.1606V33.7839H5.46895C4.44248 33.7839 3.45805 33.3762 2.73222 32.6504C2.0064 31.9245 1.59863 30.9401 1.59863 29.9136V23.8044C1.60161 22.7799 2.01069 21.7983 2.73619 21.0749C3.4617 20.3515 4.44442 19.9453 5.46895 19.9453Z" stroke="#A22136" stroke-width="2.5" stroke-miterlimit="10"/>
<path d="M53.1687 33.7891L48.4771 33.7891V19.9504H53.1687C54.1952 19.9504 55.1796 20.3582 55.9055 21.084C56.6313 21.8098 57.0391 22.7943 57.0391 23.8207V29.93C57.0361 30.9545 56.627 31.9361 55.9015 32.6595C55.176 33.3828 54.1933 33.7891 53.1687 33.7891Z" stroke="#A22136" stroke-width="2.5" stroke-miterlimit="10"/>
<path d="M53.207 33.5V35.9602C53.207 38.1504 51.9319 39.928 50.3605 39.928H33.1016" stroke="#4F9537" stroke-width="2.5" stroke-miterlimit="10"/>
<path d="M31.9758 38.8047H30.8507C30.2293 38.8047 29.7256 39.3084 29.7256 39.9298C29.7256 40.5512 30.2293 41.0549 30.8507 41.0549H31.9758C32.5971 41.0549 33.1009 40.5512 33.1009 39.9298C33.1009 39.3084 32.5971 38.8047 31.9758 38.8047Z" stroke="#4F9537" stroke-width="2.5" stroke-miterlimit="10"/>
</svg>
