<svg width="46" height="52" viewBox="0 0 46 52" fill="none" xmlns="http://www.w3.org/2000/svg">
<path d="M22.9999 50.3259C34.8799 50.3259 44.5105 40.6953 44.5105 28.8153C44.5105 16.9353 34.8799 7.30469 22.9999 7.30469C11.1199 7.30469 1.48926 16.9353 1.48926 28.8153C1.48926 40.6953 11.1199 50.3259 22.9999 50.3259Z" stroke="#A22136" stroke-width="2.5" stroke-miterlimit="10" stroke-linecap="round"/>
<path d="M22.209 13.9766H23.0009C26.6164 13.9734 30.1091 15.2877 32.8256 17.6736C35.542 20.0594 37.2961 23.3533 37.7596 26.939C38.223 30.5246 37.3641 34.1562 35.3436 37.1543C33.3231 40.1525 30.2793 42.3117 26.7819 43.2279" stroke="#4F9537" stroke-width="2.5" stroke-miterlimit="10" stroke-linecap="round"/>
<path d="M22.8975 45.7827V32.1406" stroke="#A22136" stroke-width="2.5" stroke-miterlimit="10" stroke-linecap="round"/>
<path d="M22.8975 7.30512V1.8125" stroke="#A22136" stroke-width="2.5" stroke-miterlimit="10" stroke-linecap="round"/>
<path d="M6.80371 8.25L9.63943 11.8521" stroke="#A22136" stroke-width="2.5" stroke-miterlimit="10" stroke-linecap="round"/>
<path d="M39.2216 8.25L36.3604 11.8521" stroke="#A22136" stroke-width="2.5" stroke-miterlimit="10" stroke-linecap="round"/>
<path d="M16.46 1.8125H29.9233" stroke="#A22136" stroke-width="2.5" stroke-miterlimit="10" stroke-linecap="round"/>
<path d="M22.9998 32.1344C24.834 32.1344 26.3209 30.6475 26.3209 28.8133C26.3209 26.9791 24.834 25.4922 22.9998 25.4922C21.1656 25.4922 19.6787 26.9791 19.6787 28.8133C19.6787 30.6475 21.1656 32.1344 22.9998 32.1344Z" stroke="#A22136" stroke-width="2.5" stroke-miterlimit="10" stroke-linecap="round"/>
</svg>
