<svg width="53" height="45" viewBox="0 0 53 45" fill="none" xmlns="http://www.w3.org/2000/svg">
<path d="M40.3478 16.6797H50.3671C50.626 16.6797 50.8744 16.7826 51.0575 16.9657C51.2406 17.1488 51.3435 17.3972 51.3435 17.6561V26.699C51.3435 26.958 51.2406 27.2063 51.0575 27.3895C50.8744 27.5726 50.626 27.6754 50.3671 27.6754H40.3478C38.8906 27.6754 37.4931 27.0966 36.4627 26.0662C35.4324 25.0359 34.8535 23.6384 34.8535 22.1812C34.8526 21.4591 34.994 20.7439 35.2697 20.0764C35.5453 19.409 35.9499 18.8024 36.4602 18.2915C36.9705 17.7805 37.5765 17.3752 38.2435 17.0986C38.9106 16.822 39.6256 16.6797 40.3478 16.6797Z" stroke="#A22136" stroke-width="2.5" stroke-miterlimit="10" stroke-linecap="round"/>
<path d="M38.9707 22.1797H40.3479" stroke="#A22136" stroke-width="2.5" stroke-miterlimit="10" stroke-linecap="round"/>
<path d="M50.339 14.1034V5.35156C50.339 3.14242 48.5482 1.35156 46.339 1.35156H5.51758C3.30844 1.35156 1.51758 3.14242 1.51758 5.35156V38.8862C1.51758 41.0954 3.30844 42.8862 5.51758 42.8862H46.339C48.5482 42.8862 50.339 41.0954 50.339 38.8862V30.863" stroke="#A22136" stroke-width="2.5" stroke-linecap="round"/>
</svg>
