<svg width="45" height="45" viewBox="0 0 45 45" fill="none" xmlns="http://www.w3.org/2000/svg">
<mask id="path-1-inside-1_1149_1453" fill="white">
<path d="M28.2018 2.5V11.5785L22.8576 7.94707L17.3076 11.5785V2.5"/>
</mask>
<path d="M28.2018 11.5785L26.7967 13.6462L30.7018 16.2998V11.5785H28.2018ZM22.8576 7.94707L24.2627 5.87928L22.8838 4.94233L21.4888 5.85509L22.8576 7.94707ZM17.3076 11.5785H14.8076V16.2018L18.6764 13.6704L17.3076 11.5785ZM25.7018 2.5V11.5785H30.7018V2.5H25.7018ZM29.6068 9.51066L24.2627 5.87928L21.4525 10.0149L26.7967 13.6462L29.6068 9.51066ZM21.4888 5.85509L15.9388 9.48647L18.6764 13.6704L24.2264 10.0391L21.4888 5.85509ZM19.8076 11.5785V2.5H14.8076V11.5785H19.8076Z" fill="#A22136" mask="url(#path-1-inside-1_1149_1453)"/>
<path d="M11.636 37.8092H10.386V39.0592V43.3685H1.76758V39.0592V34.75H43.7415V39.0592V43.3685H35.123V39.0592V37.8092H33.873H28.3137H27.0637V39.0592V43.3685H18.4453V39.0592V37.8092H17.1953H11.636Z" stroke="#A22136" stroke-width="2.5"/>
<path d="M7.32617 26.6868V1.39062H38.1816V26.6868H7.32617Z" stroke="#A22136" stroke-width="2.5"/>
</svg>
