<svg width="59" height="47" viewBox="0 0 59 47" fill="none" xmlns="http://www.w3.org/2000/svg">
<path d="M29.2705 45.6171C39.5956 45.6171 47.9658 37.247 47.9658 26.9218C47.9658 16.5967 39.5956 8.22656 29.2705 8.22656C18.9454 8.22656 10.5752 16.5967 10.5752 26.9218C10.5752 37.247 18.9454 45.6171 29.2705 45.6171Z" stroke="#A22136" stroke-width="2.5" stroke-miterlimit="10"/>
<path d="M6.18359 19.8795C7.55322 14.7952 10.5515 10.3001 14.7194 7.08226C18.8873 3.86446 23.9949 2.10143 29.2603 2.06314C34.5256 2.02484 39.6584 3.7134 43.8726 6.87023C48.0868 10.0271 51.1502 14.4782 52.5936 19.5419" stroke="#A22136" stroke-width="2.5" stroke-miterlimit="10"/>
<path d="M5.3879 19.9531H10.0795V33.7918H5.3879C4.36142 33.7918 3.37699 33.384 2.65117 32.6582C1.92534 31.9323 1.51758 30.9479 1.51758 29.9214V23.8122C1.52056 22.7877 1.92964 21.8061 2.65514 21.0827C3.38064 20.3593 4.36337 19.9531 5.3879 19.9531Z" stroke="#A22136" stroke-width="2.5" stroke-miterlimit="10"/>
<path d="M53.0877 33.7969L48.3961 33.7969V19.9582H53.0877C54.1142 19.9582 55.0986 20.366 55.8244 21.0918C56.5502 21.8177 56.958 22.8021 56.958 23.8286V29.9378C56.955 30.9623 56.5459 31.9439 55.8204 32.6673C55.0949 33.3907 54.1122 33.7969 53.0877 33.7969Z" stroke="#A22136" stroke-width="2.5" stroke-miterlimit="10"/>
<path d="M53.1259 33.5078V35.968C53.1259 38.1582 51.8508 39.9358 50.2794 39.9358H33.0205" stroke="#A22136" stroke-width="2.5" stroke-miterlimit="10"/>
<path d="M31.8947 38.8125H30.7696C30.1483 38.8125 29.6445 39.3162 29.6445 39.9376C29.6445 40.559 30.1483 41.0627 30.7696 41.0627H31.8947C32.5161 41.0627 33.0198 40.559 33.0198 39.9376C33.0198 39.3162 32.5161 38.8125 31.8947 38.8125Z" stroke="#A22136" stroke-width="2.5" stroke-miterlimit="10"/>
</svg>
