<svg width="43" height="49" viewBox="0 0 43 49" fill="none" xmlns="http://www.w3.org/2000/svg">
<path d="M33.4951 13.8346C34.179 13.7407 34.6573 13.1101 34.5634 12.4262L33.0329 1.28075C32.939 0.596816 32.3084 0.11851 31.6245 0.212428C30.9406 0.306345 30.4623 0.936922 30.5562 1.62086L31.9166 11.5279L22.0096 12.8883C21.3256 12.9822 20.8473 13.6128 20.9412 14.2967C21.0352 14.9807 21.6657 15.459 22.3497 15.3651L33.4951 13.8346ZM39.7891 28.1172C39.7891 38.1791 31.6322 46.3359 21.5703 46.3359V48.8359C33.013 48.8359 42.2891 39.5598 42.2891 28.1172H39.7891ZM21.5703 46.3359C11.5084 46.3359 3.35156 38.1791 3.35156 28.1172H0.851562C0.851562 39.5598 10.1277 48.8359 21.5703 48.8359V46.3359ZM3.35156 28.1172C3.35156 18.0553 11.5084 9.89844 21.5703 9.89844V7.39844C10.1277 7.39844 0.851562 16.6745 0.851562 28.1172H3.35156ZM21.5703 9.89844C25.7041 9.89844 29.513 11.2737 32.5696 13.5921L34.0805 11.6003C30.6043 8.96358 26.2683 7.39844 21.5703 7.39844V9.89844Z" fill="#A22136"/>
</svg>
